<?xml version="1.0" encoding="utf-8"?>
<!-- Generator: Adobe Illustrator 19.0.0, SVG Export Plug-In . SVG Version: 6.00 Build 0)  -->
<svg version="1.1" id="Camada_1" xmlns="http://www.w3.org/2000/svg" xmlns:xlink="http://www.w3.org/1999/xlink" x="0px" y="0px"
	 viewBox="-280 372 50 50" style="enable-background:new -280 372 50 50;" xml:space="preserve">
<style type="text/css">
	.st0{fill:#DC5E82;}
	.st1{fill:#F56991;}
	.st2{fill:#444444;}
</style>
<path class="st0" d="M-332.3,406.9V378c0-2.1-1.7-3.7-3.7-3.7h-38c-2.1,0-3.7,1.7-3.7,3.7l0,0v38c0,2.1,1.7,3.7,3.7,3.7h6.5
	L-332.3,406.9"/>
<path class="st1" d="M-339.7,374.3H-374c-2.1,0-3.7,1.7-3.7,3.7l0,0v10.1L-339.7,374.3z"/>
<g>
	<path class="st2" d="M-236,373h-38c-2.7,0-5,2.2-5,5v38c0,2.7,2.2,5,5,5h32.4c0.7,0,1.3-0.6,1.3-1.3c0-0.7-0.6-1.3-1.3-1.3H-274
		c-1.4,0-2.5-1.1-2.5-2.5v-38c0-1.4,1.1-2.5,2.5-2.5h38c1.4,0,2.5,1.1,2.5,2.5v28.9c0,0.7,0.6,1.3,1.3,1.3c0.7,0,1.3-0.6,1.3-1.3
		V378C-231,375.3-233.3,373-236,373z"/>
	<path class="st2" d="M-238.5,378.1h-33c-1.3,0-2.4,1.1-2.4,2.4v33c0,1.3,1.1,2.4,2.4,2.4h33c1.3,0,2.4-1.1,2.4-2.4v-33
		C-236.1,379.2-237.2,378.1-238.5,378.1z M-236.6,413.5c0,1-0.8,1.9-1.9,1.9h-33c-1,0-1.9-0.8-1.9-1.9v-33c0-1,0.8-1.9,1.9-1.9h33
		c1,0,1.9,0.8,1.9,1.9C-236.6,380.5-236.6,413.5-236.6,413.5z"/>
	<path class="st2" d="M-259.2,396.6l4.6-8.9c0.1-0.2,0-0.3-0.1-0.3h-2.8c-0.2,0-0.2,0.1-0.3,0.2c-1.1,2.3-2.2,4.6-3.2,7h0
		c-1.1-2.4-2.2-4.7-3.3-7c-0.1-0.2-0.1-0.2-0.3-0.2h-3c-0.1,0-0.2,0.1-0.1,0.3l4.7,9.2l-4.8,9.3c-0.1,0.1-0.1,0.2,0.1,0.2h2.9
		c0.1,0,0.2-0.1,0.3-0.2c1.1-2.3,2.3-4.9,3.3-7.2h0c1.1,2.4,2.3,4.8,3.4,7.2c0.1,0.2,0.2,0.2,0.4,0.2h3.1c0.1,0,0.2-0.1,0.1-0.3
		C-254.2,406.1-259.2,396.6-259.2,396.6z M-242.1,387.6c0-0.1,0-0.1-0.2-0.1h-2.8c-0.1,0-0.2,0.1-0.2,0.2v4.6c-0.4,0-0.5,0-0.9,0
		c-4.3,0-7,3.2-7,7.3c0,4.8,2.7,7.1,6.5,7.1c1.5,0,3-0.3,4.5-1c0.1-0.1,0.1-0.1,0.1-0.2c-0.1-0.6-0.1-1.2-0.1-1.7
		C-242.1,403.6-242.1,387.6-242.1,387.6z M-245.3,403.6c-0.3,0.1-0.8,0.2-1.2,0.2c-2,0-3.5-1.3-3.5-4.5c0-2.8,1.5-4.5,3.7-4.5
		c0.4,0,0.8,0.1,1,0.2h0C-245.3,394.9-245.3,403.6-245.3,403.6z"/>
</g>
</svg>
